<svg data-v-0dd9719b="" version="1.0" xmlns="http://www.w3.org/2000/svg" xmlns:xlink="http://www.w3.org/1999/xlink" width="100%" height="100%" viewBox="0 0 340.000000 250.000000" preserveAspectRatio="xMidYMid meet" color-interpolation-filters="sRGB" style="margin: auto;"> <rect data-v-0dd9719b="" x="0" y="0" width="100%" height="100%" fill="#fff" fill-opacity="1" class="background"></rect> <rect data-v-0dd9719b="" x="0" y="0" width="100%" height="100%" fill="url(#watermark)" fill-opacity="1" class="watermarklayer"></rect> <g data-v-0dd9719b="" fill="#ef7a00" class="icon-text-wrapper icon-svg-group iconsvg" transform="translate(49.05999755859375,94.12214088439941)"><g class="iconsvg-imagesvg" transform="translate(0,0)"><g><rect fill="#ef7a00" fill-opacity="0" stroke-width="2" x="0" y="0" width="60" height="61.75571497679014" class="image-rect"></rect> <svg x="0" y="0" width="60" height="61.75571497679014" filtersec="colorsb9961017526" class="image-svg-svg primary" style="overflow: visible;"><svg xmlns="http://www.w3.org/2000/svg" viewBox="0 -0.00007631387416040525 248.5 255.77061462402344"><g><g fill-rule="evenodd"><path d="M246.46 79.77q.74 1.83 1.43 3.68.61 6.19.61 12.54A127.94 127.94 0 0 1 3.25 147c26.48 94.89 132.64 134.2 215.91 70.55C140.26 297.86.79 243.67 0 128.82a127.94 127.94 0 0 0 245.3-44.58A128 128 0 0 1 3.81 96.82a126.94 126.94 0 0 1 6.36-19 128 128 0 0 0 236.3 1.91z" fill="#ef7a00"></path><path d="M127.92 0a128 128 0 0 1 117.71 77.77 127.72 127.72 0 0 1-101.87 50.56A128 128 0 0 1 26 50.56 127.72 127.72 0 0 1 127.92 0z" fill="#0872ba"></path></g></g></svg></svg> <!----></g></g> <g transform="translate(67,2.8816089630126953)"><g data-gra="path-name" fill-rule="" class="tp-name iconsvg-namesvg" transform="translate(0,0)"><g transform="scale(1)"><g><path d="M31.72 0.36L13.41 0.36Q12.24 0.36 11.52-0.36 10.8-1.08 10.8-2.25L10.8-2.25 10.8-25.79 4.18-25.79Q2.56-25.79 2.56-27.45L2.56-27.45Q2.56-29.07 4.18-29.07L4.18-29.07 10.8-29.07 10.8-35.68Q10.8-37.39 12.51-37.39L12.51-37.39Q14.22-37.39 14.22-35.68L14.22-35.68 14.22-29.07 30.82-29.07 30.82-35.64Q30.82-37.39 32.58-37.39L32.58-37.39Q34.34-37.39 34.34-35.64L34.34-35.64 34.34-29.07 40.86-29.07Q42.48-29.07 42.48-27.45L42.48-27.45Q42.48-25.79 40.86-25.79L40.86-25.79 34.34-25.79 34.34-2.25Q34.34-1.08 33.62-0.36 32.89 0.36 31.72 0.36L31.72 0.36ZM15.16-2.92L15.16-2.92 29.88-2.92Q30.82-2.92 30.82-3.87L30.82-3.87 30.82-12.78 14.22-12.78 14.22-3.87Q14.22-2.92 15.16-2.92ZM14.22-25.79L14.22-16.06 30.82-16.06 30.82-25.79 14.22-25.79ZM50.94 2.21Q49.63 3.55 48.51 2.61L48.51 2.61Q47.16 1.48 48.78-0.22L48.78-0.22Q50.85-2.88 51.66-6.39L51.66-6.39Q52.2-8.87 52.2-12.33L52.2-12.33 52.2-14.45Q52.2-15.97 53.73-15.97L53.73-15.97Q55.26-15.97 55.26-14.45L55.26-14.45 55.26-12.29Q55.26-7.51 54.36-4.27L54.36-4.27Q53.33-0.54 50.94 2.21L50.94 2.21ZM67.59 3.38L67.59 3.38Q65.92 3.38 65.92 1.75L65.92 1.75 65.92-18.18 53.82-18.18Q52.42-18.18 52.42-19.62L52.42-19.62Q52.42-21.02 53.82-21.02L53.82-21.02 65.92-21.02 65.92-24.97 49.27-24.97Q47.97-24.97 47.97-26.28 47.97-27.58 49.27-27.58L49.27-27.58 65.92-27.58 65.92-31.41 53.82-31.41Q52.42-31.41 52.42-32.85L52.42-32.85Q52.42-34.24 53.82-34.24L53.82-34.24 65.92-34.24 65.92-36Q65.92-37.62 67.59-37.62L67.59-37.62Q69.21-37.62 69.21-36L69.21-36 69.21-34.24 80.46-34.24Q81.63-34.24 82.35-33.52 83.07-32.8 83.07-31.63L83.07-31.63 83.07-27.58 85.95-27.58Q87.25-27.58 87.25-26.28 87.25-24.97 85.95-24.97L85.95-24.97 83.07-24.97 83.07-20.79Q83.07-19.62 82.35-18.9 81.63-18.18 80.46-18.18L80.46-18.18 69.21-18.18 69.21 1.75Q69.21 3.38 67.59 3.38ZM82.26 3.01L82.26 3.01Q80.69 3.01 80.69 1.48L80.69 1.48 80.69-14.4Q80.69-15.93 82.26-15.93L82.26-15.93Q83.79-15.93 83.79-14.4L83.79-14.4 83.79 1.48Q83.79 3.01 82.26 3.01ZM60.21-3.19Q59.63-1.93 58.27-2.65L58.27-2.65Q57.6-3.01 57.47-3.42 57.33-3.82 57.64-4.46L57.64-4.46Q58.99-7.6 60.08-12.69L60.08-12.69Q60.39-14.17 61.76-13.9 63.13-13.63 62.86-12.29L62.86-12.29Q62.46-10.21 61.65-7.29L61.65-7.29Q60.98-5.08 60.21-3.19L60.21-3.19ZM76.41-3.06Q74.92-2.65 74.61-4.05L74.61-4.05Q74.34-5.22 73.62-7.92L73.62-7.92Q72.72-10.89 72.18-12.31 71.64-13.72 73.22-13.99L73.22-13.99Q74.38-14.26 74.88-13.09L74.88-13.09Q76.63-8.5 77.58-4.54L77.58-4.54Q77.72-3.87 77.44-3.55 77.17-3.24 76.41-3.06L76.41-3.06ZM69.21-24.97L69.21-21.02 78.62-21.02Q79.56-21.02 79.56-21.96L79.56-21.96 79.56-24.97 69.21-24.97ZM69.21-31.41L69.21-27.58 79.56-27.58 79.56-30.46Q79.56-31.41 78.62-31.41L78.62-31.41 69.21-31.41ZM94.41 3.06L94.41 3.06Q93.87 3.06 93.28 2.48L93.28 2.48Q92.52 1.75 92.59 1.17 92.66 0.58 93.51-0.09L93.51-0.09Q96.08-2.34 97.97-5.76L97.97-5.76Q95.85-8.64 94.28-13.09L94.28-13.09Q93.83-14.54 95.04-14.98L95.04-14.98Q96.34-15.52 96.89-13.95L96.89-13.95Q97.92-10.93 99.36-8.82L99.36-8.82Q101.03-12.78 101.75-18.04L101.75-18.04Q101.88-19.08 100.94-19.08L100.94-19.08 96.75-19.08 96.48-18.54Q95.89-17.32 94.55-17.68L94.55-17.68Q92.79-18.18 93.6-19.71L93.6-19.71Q96.66-25.65 99.41-31.81L99.41-31.81 93.73-31.81Q92.25-31.81 92.25-33.3 92.25-34.78 93.73-34.78L93.73-34.78 100.75-34.78Q102.15-34.78 102.71-34.04 103.28-33.3 102.78-32.09L102.78-32.09Q101.39-28.62 98.19-22.05L98.19-22.05 102.6-22.05Q103.86-22.05 104.49-21.22 105.12-20.38 104.94-18.81L104.94-18.81Q103.91-11.43 101.66-6.08L101.66-6.08Q104.67-3.15 109.39-1.98L109.39-1.98Q113.31-0.99 119.43-0.99L119.43-0.99Q127.71-0.99 131.31-1.03L131.31-1.03Q132.48-1.03 132.66-0.58L132.66-0.58Q132.8-0.18 132.3 0.99L132.3 0.99Q131.81 2.25 130.32 2.25L130.32 2.25 119.34 2.25Q112.72 2.25 108.5 1.17L108.5 1.17Q103.55-0.09 100.22-3.19L100.22-3.19Q98.19 0.32 95.63 2.52L95.63 2.52Q94.95 3.06 94.41 3.06ZM118.13-2.52L118.13-2.52Q116.5-2.52 116.5-4.09L116.5-4.09 116.5-7.29 106.2-7.29Q104.85-7.29 104.85-8.69L104.85-8.69Q104.85-10.04 106.2-10.04L106.2-10.04 116.5-10.04 116.5-13.59 108.13-13.59Q106.88-13.59 106.88-14.89L106.88-14.89Q106.88-16.16 108.13-16.16L108.13-16.16 116.5-16.16 116.5-19.48 108.45-19.48Q107.1-19.48 107.1-20.84 107.1-22.18 108.45-22.18L108.45-22.18 116.5-22.18 116.5-25.52 105.57-25.52Q104.27-25.52 104.27-26.86L104.27-26.86Q104.27-28.17 105.57-28.17L105.57-28.17 116.5-28.17 116.5-31.41 108.72-31.41Q107.41-31.41 107.41-32.76L107.41-32.76Q107.41-34.06 108.72-34.06L108.72-34.06 116.5-34.06 116.5-35.73Q116.5-37.3 118.13-37.3L118.13-37.3Q119.7-37.3 119.7-35.73L119.7-35.73 119.7-34.06 126.9-34.06Q128.07-34.06 128.79-33.34 129.51-32.63 129.51-31.45L129.51-31.45 129.51-28.17 131.53-28.17Q132.84-28.17 132.84-26.86L132.84-26.86Q132.84-25.52 131.53-25.52L131.53-25.52 129.51-25.52 129.51-22.09Q129.51-20.93 128.79-20.2 128.07-19.48 126.9-19.48L126.9-19.48 119.7-19.48 119.7-16.16 128.7-16.16Q129.96-16.16 129.96-14.89L129.96-14.89Q129.96-13.59 128.7-13.59L128.7-13.59 119.7-13.59 119.7-10.04 130.55-10.04Q131.89-10.04 131.89-8.69L131.89-8.69Q131.89-7.29 130.55-7.29L130.55-7.29 119.7-7.29 119.7-4.09Q119.7-2.52 118.13-2.52ZM119.7-25.52L119.7-22.18 125.37-22.18Q126.31-22.18 126.31-23.13L126.31-23.13 126.31-25.52 119.7-25.52ZM119.7-31.41L119.7-28.17 126.31-28.17 126.31-30.46Q126.31-31.41 125.37-31.41L125.37-31.41 119.7-31.41ZM175.91 2.21L139.28 2.21Q137.75 2.21 137.75 0.67L137.75 0.67Q137.75-0.9 139.28-0.9L139.28-0.9 146.38-0.9 146.38-22.09Q146.38-23.27 147.1-23.98 147.82-24.7 149-24.7L149-24.7 165.91-24.7Q167.09-24.7 167.81-23.98 168.53-23.27 168.53-22.09L168.53-22.09 168.53-0.9 175.91-0.9Q177.44-0.9 177.44 0.67L177.44 0.67Q177.44 2.21 175.91 2.21L175.91 2.21ZM149.53-6.03L149.53-0.9 165.15-0.9 165.15-6.03 149.53-6.03ZM149.53-13.95L149.53-8.87 165.15-8.87 165.15-13.95 149.53-13.95ZM149.53-20.79L149.53-16.74 165.15-16.74 165.15-20.79Q165.15-21.73 164.2-21.73L164.2-21.73 150.48-21.73Q149.53-21.73 149.53-20.79L149.53-20.79ZM140.72-23.18L140.72-23.18Q139.09-23.18 139.09-24.75L139.09-24.75 139.09-29.97Q139.09-31.14 139.81-31.86 140.53-32.58 141.71-32.58L141.71-32.58 155.7-32.58 155.7-36Q155.7-37.66 157.41-37.66L157.41-37.66Q159.07-37.66 159.07-36L159.07-36 159.07-32.58 173.38-32.58Q174.56-32.58 175.28-31.86 176-31.14 176-29.97L176-29.97 176-24.84Q176-23.18 174.33-23.18L174.33-23.18Q172.66-23.18 172.66-24.84L172.66-24.84 172.66-28.57Q172.66-29.52 171.72-29.52L171.72-29.52 143.24-29.52Q142.29-29.52 142.29-28.57L142.29-28.57 142.29-24.75Q142.29-23.18 140.72-23.18Z" transform="translate(-2.559999942779541, 37.65999984741211)"></path></g> <!----> <!----> <!----> <!----> <!----> <!----> <!----></g></g> <g data-gra="path-slogan" fill-rule="" class="tp-slogan iconsvg-slogansvg" fill="#ef7a00" transform="translate(5,47.040000915527344)"><rect x="0" height="1" y="3.9750003814697266" width="38.72944641113281"></rect> <rect height="1" y="3.9750003814697266" width="38.72944641113281" x="126.15055847167969"></rect> <g transform="translate(41.72944641113281,0)"><g transform="scale(1)"><path d="M7.31-3.61L4.69-3.61L4.69-4.59L8.44-4.59L8.44 0L7.69 0L7.41-1.08Q6.42 0.09 4.59 0.14L4.59 0.14Q2.86 0.14 1.92-0.75L1.92-0.75Q0.52-2.06 0.56-4.36L0.56-4.36Q0.89-8.63 4.64-8.81L4.64-8.81Q7.83-8.63 8.30-6L8.30-6L7.17-6Q6.70-7.78 4.59-7.83L4.59-7.83Q1.92-7.64 1.78-4.31L1.78-4.31Q1.78-0.75 4.64-0.75L4.64-0.75Q5.67-0.75 6.42-1.31L6.42-1.31Q7.36-2.06 7.31-3.61L7.31-3.61ZM15.89 0L15.05-2.48L11.58-2.48L10.69 0L9.52 0L12.75-8.58L14.06-8.58L17.16 0L15.89 0ZM13.31-7.31L11.95-3.52L14.63-3.52L13.36-7.31L13.31-7.31ZM19.59-8.58L23.91-1.64L23.91-8.58L25.03-8.58L25.03 0L23.72 0L19.36-6.94L19.31-6.94L19.31 0L18.19 0L18.19-8.58L19.59-8.58ZM33.09-6.09L33.09-6.09L32.02-6.09Q31.92-7.73 29.86-7.83L29.86-7.83Q27.94-7.78 27.94-6.33L27.94-6.33Q27.94-5.39 28.97-5.25L28.97-5.25L31.41-4.69Q33.33-4.22 33.33-2.34L33.33-2.34Q33.28 0.05 29.95 0.14L29.95 0.14Q28.13 0.14 27.38-0.61L27.38-0.61Q26.44-1.31 26.48-2.77L26.48-2.77L27.61-2.77Q27.66-0.80 29.95-0.75L29.95-0.75Q32.20-0.80 32.25-2.20L32.25-2.20Q32.44-3.38 30.38-3.75L30.38-3.75L28.59-4.13Q26.77-4.64 26.77-6.19L26.77-6.19Q26.91-8.72 29.77-8.81L29.77-8.81Q33-8.81 33.09-6.09ZM40.45-3.19L40.45-8.58L41.63-8.58L41.63-3.05Q41.48 0.05 38.11 0.14L38.11 0.14Q34.97 0.05 34.83-2.86L34.83-2.86L34.83-8.58L36-8.58L36-3.19Q36.05-0.84 38.16-0.80L38.16-0.80Q40.45-0.84 40.45-3.19L40.45-3.19ZM46.03-1.92L46.03-2.77L47.11-2.77L47.11-2.16Q47.11-0.75 48.42-0.75L48.42-0.75Q49.78-0.75 49.78-2.25L49.78-2.25L49.78-8.58L50.95-8.58L50.95-2.30Q50.91 0.09 48.47 0.14L48.47 0.14Q46.17 0.09 46.03-1.92L46.03-1.92ZM52.92-8.58L54.09-8.58L54.09 0L52.92 0L52.92-8.58ZM61.73 0L60.89-2.48L57.42-2.48L56.53 0L55.36 0L58.59-8.58L59.91-8.58L63 0L61.73 0ZM59.16-7.31L57.80-3.52L60.47-3.52L59.20-7.31L59.16-7.31ZM65.44-8.58L69.75-1.64L69.75-8.58L70.88-8.58L70.88 0L69.56 0L65.20-6.94L65.16-6.94L65.16 0L64.03 0L64.03-8.58L65.44-8.58ZM79.59-8.58L76.36-3.47L76.36 0L75.19 0L75.19-3.47L71.95-8.58L73.31-8.58L75.75-4.45L78.23-8.58L79.59-8.58ZM80.81-8.58L81.98-8.58L81.98 0L80.81 0L80.81-8.58Z" transform="translate(-0.5609879032258065, 8.8125)"></path></g></g></g></g></g><defs v-gra="od"></defs></svg>